<svg width="512" height="512" xmlns="http://www.w3.org/2000/svg" xml:space="preserve" version="1.1">
 <defs>
  <linearGradient gradientTransform="rotate(90)" id="myGradient">
   <stop stop-color="#fd267d" offset="5%"/>
   <stop stop-color="#ff7854" offset="95%"/>
  </linearGradient>
  <filter id="svg_4_blur">
   <feGaussianBlur stdDeviation="0" in="SourceGraphic"/>
  </filter>
 </defs>
 <g>
  <title>Layer 1</title>
  <path id="svg_1" d="m260.50429,19.96c-1.344,93.461 -43.683,154.835 -97.769,176.713c-6.606,2.672 -14.151,0.503 -18.292,-5.296c-8.432,-11.811 -18.638,-30.298 -22.985,-55.172c-1.54,-8.808 -12.341,-12.318 -18.632,-5.964c-46.716,47.183 -69.882,103.355 -69.882,171.17c-0.002,129.746 100.184,210.589 223.77,210.589s223.772,-80.843 223.772,-210.589c0,-144.671 -83.209,-251.924 -191.786,-299.698c-13.186,-5.802 -27.989,3.842 -28.196,18.247z" fill="url('#myGradient')"/>
  <g stroke="null" id="svg_2">
   <path filter="url(#svg_4_blur)" stroke="null" id="svg_4" fill="#495059" d="m278.85714,434.52871l0,0c-16.187,0 -29.309,-13.122 -29.309,-29.309l0,-21.308c0,-4.419 3.582,-8.001 8.001,-8.001l42.617,0c4.419,0 8.001,3.582 8.001,8.001l0,21.308c-0.001,16.187 -13.123,29.309 -29.31,29.309z"/>
   <path stroke="null" id="svg_9" d="m187.96952,321.849c-27.75997,-24.30588 -37.68527,-39.68137 -37.76571,-58.50371c-0.07335,-17.1589 12.1789,-33.71974 24.87622,-33.62423c6.34048,0.04777 19.94118,6.36319 24.75724,11.49604c2.42661,2.58621 3.57598,2.33119 8.97857,-1.99223c14.70359,-11.76651 29.06178,-12.01347 38.3608,-0.6598c14.86177,18.14559 12.15602,39.81474 -7.77811,62.29148c-10.59815,11.94994 -33.74216,33.14981 -36.18982,33.14981c-0.74478,0 -7.60244,-5.47082 -15.23919,-12.15736l0,0z" fill="#495059"/>
   <path stroke="null" id="svg_11" d="m337.96951,322.56329c-27.75997,-24.30588 -37.68527,-39.68137 -37.76571,-58.50371c-0.07334,-17.1589 12.1789,-33.71974 24.87623,-33.62424c6.34048,0.04778 19.94117,6.36319 24.75724,11.49605c2.42661,2.58621 3.57597,2.33119 8.97857,-1.99223c14.70358,-11.76651 29.06178,-12.01347 38.3608,-0.6598c14.86176,18.14559 12.15602,39.81473 -7.77812,62.29148c-10.59815,11.94994 -33.74215,33.14982 -36.18982,33.14982c-0.74478,0 -7.60243,-5.47083 -15.23919,-12.15737l0,0z" fill="#495059"/>
  </g>
 </g>
</svg>