<svg width="512" height="512" xmlns="http://www.w3.org/2000/svg" xml:space="preserve" version="1.1">
 <defs>
  <linearGradient gradientTransform="rotate(90)" id="myGradient">
   <stop stop-color="#fd267d" offset="5%"/>
   <stop stop-color="#ff7854" offset="95%"/>
  </linearGradient>
 </defs>
 <g>
  <title>Layer 1</title>
  <path id="svg_1" d="m259.79,19.96c-1.344,93.461 -43.683,154.835 -97.769,176.713c-6.606,2.672 -14.151,0.503 -18.292,-5.296c-8.432,-11.811 -18.638,-30.298 -22.985,-55.172c-1.54,-8.808 -12.341,-12.318 -18.632,-5.964c-46.716,47.183 -69.882,103.355 -69.882,171.17c-0.002,129.746 100.184,210.589 223.77,210.589s223.772,-80.843 223.772,-210.589c0,-144.671 -83.209,-251.924 -191.786,-299.698c-13.186,-5.802 -27.989,3.842 -28.196,18.247z" fill="url('#myGradient')"/>
  <g stroke="null" id="svg_2">
   <path stroke="null" id="svg_4" fill="#495059" d="m268.14286,415.243l0,0c-16.187,0 -29.309,-13.122 -29.309,-29.309l0,-21.308c0,-4.419 3.582,-8.001 8.001,-8.001l42.617,0c4.419,0 8.001,3.582 8.001,8.001l0,21.308c-0.001,16.187 -13.123,29.309 -29.31,29.309z"/>
   <path stroke="null" id="svg_5" fill="#495059" d="m362.85459,330.04594c-12.93631,0 -23.41837,-8.60699 -23.41837,-19.22919l0,-44.51685c0,-10.6222 10.48206,-19.22919 23.41837,-19.22919s23.41837,8.60699 23.41837,19.22919l0,44.51685c0,10.61964 -10.48206,19.22919 -23.41837,19.22919z"/>
   <path stroke="null" id="svg_6" fill="#495059" d="m162.85459,335.04594c-12.9363,0 -23.41836,-8.60699 -23.41836,-19.22919l0,-44.51685c0,-10.62221 10.48206,-19.22919 23.41836,-19.22919s23.41837,8.60698 23.41837,19.22919l0,44.51685c0,10.61964 -10.48206,19.22919 -23.41837,19.22919z"/>
  </g>
 </g>
</svg>